<svg xmlns="http://www.w3.org/2000/svg" width="1920" height="1260" viewBox="0 0 1920 1260">
  <defs>
    <style>
      .cls-1 {
        fill-rule: evenodd;
      }
    </style>
  </defs>
  <path id="Color_Fill_1" data-name="Color Fill 1" class="cls-1" d="M0,0H1920V784l-169,1v-1q4.995-10,10-20c5.27-19.271-3.44-41.1-8-52-24.61-58.846-81.19-50.888-135-28-2.33-1.667-4.67-3.333-7-5,0.12-16.016,6.13-49.34-4-57-17.35-13.116-101.22-8.317-132-13l-125-1c-28.88-4.372-70.28-3.45-99,1l-90,1c-41.37,6.388-85.4,5.326-122,11-1.4,55.435.48,113.44,11,161L0,785V0ZM1602,781c0.44-19.939,11.61-17.824,18-29q6.495-18,13-36c10.73-18.521,43.35-33.47,73-24,22.82,7.287,41.9,41.574,30,72q-6.495,10-13,20Z"/>
</svg>
